<svg xmlns="http://www.w3.org/2000/svg" enable-background="new 0 0 4000 4000" viewBox="0 0 4000 4000" id="consumer-purchase-decision">
  <path fill="#8bc3fe" d="M1957.354,2558.552h-33.1c-23.19,70.701-89.801,121.907-168.158,121.907s-144.968-51.206-168.158-121.907h-123.873c-32.187,0-63.988-8.412-91.965-24.327s-51.46-38.951-67.909-66.617l-233.264-392.336c-7.512-12.635-4.888-28.839,6.23-38.455l189.995-164.353c4.101-18.433,11.311-35.965,21.363-51.954l-164.419-225.45l-301.584,259.606c-89.916,77.401-112.36,216.063-52.38,322.847l422.818,660.586c3.125,4.883,4.787,10.56,4.787,16.358v277.8h887.665v-151.96c0-16.758,13.585-30.344,30.344-30.344s30.344,13.585,30.344,30.344v151.96h229.181v-115.615C2375.271,2764.05,2187.794,2558.552,1957.354,2558.552z"></path>
  <path fill="#fff" d="M1170.239,1555.34l124.886,171.241V1573.79c0-40.464,7.932-79.734,23.575-116.719c0.456-1.079,0.938-2.144,1.406-3.217c-24.808,3.428-48.447,14.184-68.648,31.572L1170.239,1555.34z"></path>
  <path fill="#4d0066" d="M2115.746,2949.952c-16.758,0-30.344,13.585-30.344,30.344v151.96v0c0,16.758,13.585,30.344,30.344,30.344s30.344-13.585,30.344-30.344v0v-151.96C2146.09,2963.538,2132.504,2949.952,2115.746,2949.952z"></path>
  <path fill="#fff" d="M2090.129,2218.037c70.228,4.644,152.262-35.276,187.969-74.942c5.721-6.356,13.859-10.002,22.41-10.042c0.047-0.001,0.095-0.001,0.142-0.001c8.5,0,16.613,3.566,22.361,9.833c32.04,34.931,78.038,54.965,126.2,54.965c60.363,0,116.129-31.103,145.537-81.17c4.532-7.718,12.242-13.041,21.065-14.545c8.821-1.5,17.861,0.965,24.694,6.744c39.25,33.196,89.843,51.478,142.46,51.478c99.233,0,186.401-65.455,207.265-155.637c1.848-7.987,6.849-14.886,13.864-19.127c7.016-4.241,15.448-5.464,23.379-3.388c17.619,4.61,32.381,6.757,46.458,6.757c94.947,0,172.192-71.686,172.192-159.799c0-47.453-23.31-92.344-63.953-123.163c-7.385-5.6-11.806-14.269-12.003-23.536c-0.196-9.266,3.854-18.115,10.996-24.022c52.161-43.148,82.076-104.888,82.076-169.39c0-119.438-100.365-218.711-228.49-226.004c-16.295-0.928-28.937-14.579-28.612-30.896c0.035-1.807,0.203-3.373,0.358-4.513c-0.954-87.359-77.827-158.157-172.183-158.157c-34.139,0-67.244,9.385-95.737,27.142c-7.995,4.98-17.848,5.967-26.667,2.672c-8.823-3.296-15.614-10.502-18.383-19.504c-32.905-106.984-139.236-181.703-258.578-181.703c-101.318,0-193.085,52.383-239.49,136.708c-4.066,7.388-11.023,12.751-19.203,14.802c-8.177,2.051-16.843,0.607-23.914-3.989c-35.281-22.925-76.642-35.043-119.612-35.043c-72.894,0-144.484,37.913-182.383,96.588c-7.071,10.946-20.341,16.156-32.97,12.943c-10.23-2.603-20.862-3.923-31.599-3.923c-65.456,0-118.709,49.161-118.709,109.588c0.035,11.468,2.928,32.357,10.66,48.191h399.361c16.758,0,30.344,13.585,30.344,30.343c0,21.536-3.532,42.53-10.323,62.318c30.755,15.066,56.98,37.612,76.878,66.314c26.704,38.521,40.818,86.934,40.818,140.005v234.951c21.448,28.053,34.208,63.085,34.208,101.044c0,81.705-59.08,149.871-136.757,164.014c-1.905,38.227-10.385,75.346-25.279,110.563c-4.289,10.139-9.07,20.001-14.31,29.584l3.264,7.44C2080.255,2218.628,2085.086,2217.704,2090.129,2218.037z M2533.586,1929.427c-52.438,0-95.099-42.661-95.099-95.099c0-52.437,42.661-95.098,95.099-95.098c52.437,0,95.098,42.661,95.098,95.098C2628.684,1886.766,2586.022,1929.427,2533.586,1929.427z M2839.109,1929.427c-52.437,0-95.098-42.661-95.098-95.099c0-52.437,42.661-95.098,95.098-95.098c52.438,0,95.099,42.661,95.099,95.098C2934.208,1886.766,2891.547,1929.427,2839.109,1929.427z M2230.57,1301.545c-16.758,0-30.344-13.585-30.344-30.343v-19.845c0-44.072,35.856-79.928,79.929-79.928c40.524,0,74.542,30.226,79.355,70.404l10.573,72.309c4.117-0.788,8.338-1.215,12.622-1.215h569.737c19.135,0,37.128,8.095,49.365,22.211c11.518,13.287,16.715,30.743,14.256,47.894l-37.685,263.255c-2.375,16.634-11.053,31.775-24.433,42.622c-12.804,10.38-29.104,16.097-45.9,16.097h-480.951c-16.796,0-33.097-5.717-45.9-16.097c-13.38-10.847-22.058-25.988-24.435-42.632l-26.084-182.218l-31.275-213.883c-0.048-0.327-0.091-0.656-0.128-0.985c-1.1-9.735-9.317-17.077-19.116-17.077c-10.61,0-19.242,8.632-19.242,19.242v19.845C2260.914,1287.96,2247.329,1301.545,2230.57,1301.545z"></path>
  <path fill="#4d0066" d="M3295.609,1610.032c18.791-38.042,28.319-78.746,28.319-120.981c0-74.047-29.745-144.326-83.755-197.89c-46.829-46.442-107.934-76.403-174.34-85.94c-5.699-50.137-29.177-96.503-67.537-132.516c-43.901-41.214-102.137-63.912-163.982-63.912c-33.106,0-65.529,6.651-95.425,19.429c-8.814-19.803-19.797-38.711-32.837-56.504c-19.901-27.156-44.107-51.058-71.944-71.041c-57.668-41.397-126.536-63.279-199.159-63.279c-61.36,0-121.241,16.058-173.169,46.439c-41.536,24.301-76.79,56.962-103.296,95.469c-38.651-19.325-81.572-29.429-125.754-29.429c-46.916,0-93.69,11.945-135.265,34.545c-34.024,18.495-63.444,43.426-86.072,72.791c-8.458-1.149-17.02-1.727-25.616-1.727c-47.559,0-92.365,17.475-126.164,49.206c-34.326,32.226-53.231,75.223-53.231,121.068c0,4.363,0.375,24.739,6.806,48.191h-18.227c-40.464,0-79.734,7.932-116.719,23.575c-35.708,15.103-67.77,36.719-95.297,64.245c-9.802,9.802-18.84,20.19-27.116,31.102c-52.06-5.108-103.052,11.341-143.962,46.556l-102.227,87.998c-0.003,0.003-0.006,0.005-0.008,0.008l-326.71,281.234c-54.198,46.654-90.631,112.97-102.589,186.732c-11.916,73.503,1.358,149.039,37.376,212.691c0.271,0.479,0.555,0.951,0.852,1.415l418.491,653.825v268.921c0,16.758,13.585,30.344,30.343,30.344c16.758,0,30.343-13.585,30.343-30.344v0v-277.8c0-5.798-1.661-11.475-4.787-16.358l-422.818-660.586c-59.981-106.784-37.536-245.446,52.38-322.847l301.584-259.606l164.419,225.45c-10.052,15.989-17.262,33.521-21.363,51.954l-189.995,164.353c-11.118,9.616-13.742,25.82-6.23,38.455l233.264,392.336c16.449,27.667,39.932,50.703,67.909,66.617s59.778,24.327,91.965,24.327h123.873c23.19,70.701,89.801,121.907,168.158,121.907s144.968-51.206,168.158-121.907h33.1c230.44,0,417.916,205.498,417.916,458.089v115.615v0c0,16.758,13.585,30.344,30.344,30.344s30.343-13.585,30.343-30.344v-115.615c0-69.709-12.543-137.369-37.282-201.1c-23.949-61.696-58.266-117.14-101.996-164.791c-43.902-47.836-95.09-85.422-152.14-111.715c-59.274-27.318-122.252-41.169-187.183-41.169h-24.331v-149.715c30.984-15.622,59.15-35.996,83.934-60.781c22.185-22.186,40.835-47.082,55.71-74.282c5.24-9.582,10.021-19.445,14.31-29.584c14.894-35.216,23.374-72.335,25.279-110.563c77.677-14.144,136.757-82.309,136.757-164.014c0-37.959-12.76-72.991-34.208-101.044v-234.951c0-53.071-14.114-101.483-40.818-140.005c-19.898-28.702-46.123-51.248-76.878-66.314c6.79-19.788,10.323-40.781,10.323-62.318c0-16.758-13.585-30.343-30.344-30.343h-399.361c-7.731-15.834-10.624-36.723-10.66-48.191c0-60.427,53.253-109.588,118.709-109.588c10.737,0,21.369,1.32,31.599,3.923c12.629,3.213,25.899-1.997,32.97-12.943c37.899-58.675,109.489-96.588,182.383-96.588c42.97,0,84.331,12.118,119.612,35.043c7.071,4.596,15.737,6.04,23.914,3.989c8.18-2.051,15.137-7.414,19.203-14.802c46.405-84.325,138.172-136.708,239.49-136.708c119.342,0,225.673,74.72,258.578,181.703c2.769,9.002,9.56,16.208,18.383,19.504c8.819,3.296,18.673,2.308,26.667-2.672c28.493-17.756,61.598-27.142,95.737-27.142c94.356,0,171.229,70.798,172.183,158.157c-0.155,1.141-0.323,2.707-0.358,4.513c-0.324,16.318,12.317,29.969,28.612,30.896c128.125,7.294,228.49,106.567,228.49,226.004c0,64.502-29.915,126.243-82.076,169.39c-7.142,5.908-11.191,14.756-10.996,24.022c0.197,9.267,4.617,17.936,12.003,23.536c40.643,30.819,63.953,75.71,63.953,123.163c0,88.113-77.245,159.799-172.192,159.799c-14.076,0-28.839-2.147-46.458-6.757c-7.93-2.075-16.363-0.853-23.379,3.388c-7.015,4.241-12.016,11.14-13.864,19.127c-20.864,90.182-108.032,155.637-207.265,155.637c-52.617,0-103.211-18.282-142.46-51.478c-6.833-5.779-15.873-8.244-24.694-6.744c-8.823,1.504-16.532,6.827-21.065,14.545c-29.407,50.067-85.173,81.17-145.537,81.17c-48.162,0-94.161-20.034-126.2-54.965c-5.748-6.267-13.861-9.833-22.361-9.833c-0.047,0-0.095,0-0.142,0.001c-8.551,0.04-16.688,3.686-22.41,10.042c-35.707,39.666-117.741,79.586-187.969,74.942c-5.043-0.333-9.874,0.591-14.198,2.49c-10.028,4.406-17.312,14.096-18.086,25.779c-1.107,16.721,11.549,31.176,28.271,32.284c5.224,0.346,10.401,0.509,15.538,0.509c48.154-0.002,91.901-14.379,121.253-27.155c29.121-12.674,56.162-29.056,77.659-46.786c16.021,13.346,33.799,24.426,53.12,33.084c30.05,13.467,62.189,20.294,95.526,20.294c41.057,0,81.256-10.619,116.254-30.71c24.015-13.786,45.169-31.742,62.38-52.803c45.467,29.854,99.452,46.02,155.122,46.02c31.747,0,62.86-5.119,92.472-15.214c28.688-9.78,55.295-23.984,79.081-42.219c39.811-30.518,69.768-71.189,86.336-116.605c11.431,1.786,22.29,2.643,33.076,2.643c61.845,0,120.081-22.698,163.982-63.913c44.429-41.71,68.896-97.315,68.896-156.573c0-55.124-21.96-107.444-61.221-147.877C3265.934,1660.038,3282.693,1636.18,3295.609,1610.032z M2051.983,2045.29v11.001c0,146.732-119.367,266.107-266.089,266.107h-61.508c-146.731,0-266.107-119.375-266.107-266.107v-11.109c0-16.595-13.331-30.111-29.924-30.34c-57.623-0.795-104.503-48.308-104.503-105.914c0-57.589,46.884-105.103,104.512-105.915c16.589-0.234,29.915-13.749,29.915-30.34v-36.29c0-132.838,108.07-240.91,240.907-240.91h111.89c132.837,0,240.907,108.072,240.907,240.91v36.199c0,16.758,13.585,30.343,30.344,30.343c58.449,0,106.001,47.553,106.001,106.003c0,58.459-47.552,106.019-106.001,106.019C2065.568,2014.946,2051.983,2028.531,2051.983,2045.29z M1872.337,2503.537c0,64.093-52.145,116.235-116.24,116.235s-116.24-52.142-116.24-116.222l0.054-131.478c27.38,7.319,55.65,11.014,84.476,11.014h61.508c29.517,0,58.449-3.879,86.443-11.552V2503.537z M1464.066,2497.866c-43.969,0-85.241-23.478-107.711-61.271l-220.282-370.501l132.554-114.664c7.315,27.898,21.828,53.524,42.614,74.562c23.915,24.204,53.998,40.208,86.745,46.517c1.862,38.38,10.35,75.646,25.301,110.995c16.461,38.918,40.019,73.864,70.021,103.865c25.313,25.313,54.157,46.019,85.925,61.766l-0.061,148.73H1464.066z M1318.7,1457.071c-15.643,36.985-23.575,76.255-23.575,116.719v152.791l-124.886-171.241l81.219-69.914c20.2-17.388,43.84-28.144,68.648-31.572C1319.638,1454.926,1319.156,1455.991,1318.7,1457.071z M2154.12,1758.506c-12.981-6.221-26.886-10.811-41.449-13.501v-8.623c0-40.703-7.978-80.204-23.712-117.407c-15.192-35.918-36.933-68.169-64.621-95.857c-14.173-14.174-29.55-26.778-45.995-37.754c27.19-9.331,52.109-24.799,73.031-45.722c6.171-6.171,11.869-12.689,17.076-19.511c54.02,25.231,85.671,80.92,85.671,152.8V1758.506z M1916.025,1435.016h-93.642c-3.759-0.138-7.526-0.23-11.307-0.23h-111.89c-40.699,0-80.197,7.978-117.398,23.713c-35.917,15.191-68.167,36.933-95.856,64.62c-27.689,27.688-49.432,59.939-64.624,95.856c-15.736,37.203-23.715,76.704-23.715,117.407v9.045c-14.561,2.844-28.59,7.612-41.782,14.159V1573.79c0-131.868,107.282-239.151,239.15-239.151h448.23C2029.471,1392.133,1977.661,1435.016,1916.025,1435.016z"></path>
  <path fill="#ffda83" d="M2068.449 1420.132c-5.207 6.822-10.904 13.34-17.076 19.511-20.922 20.922-45.842 36.391-73.031 45.722 16.445 10.976 31.822 23.58 45.995 37.754 27.688 27.688 49.429 59.939 64.621 95.857 15.734 37.202 23.712 76.703 23.712 117.407v8.623c14.563 2.69 28.468 7.28 41.449 13.501v-185.574C2154.12 1501.052 2122.469 1445.364 2068.449 1420.132zM1594.961 1334.639c-131.867 0-239.15 107.283-239.15 239.151v185.796c13.192-6.547 27.221-11.315 41.782-14.159v-9.045c0-40.703 7.979-80.205 23.715-117.407 15.192-35.917 36.935-68.168 64.624-95.856 27.688-27.687 59.939-49.429 95.856-64.62 37.201-15.735 76.699-23.713 117.398-23.713h111.89c3.781 0 7.547.092 11.307.23h93.642c61.635 0 113.446-42.883 127.166-100.376H1594.961z"></path>
  <path fill="#fff" d="M1785.895 2383.085h-61.508c-28.826 0-57.096-3.695-84.476-11.014l-.054 131.478c0 64.08 52.145 116.222 116.24 116.222s116.24-52.142 116.24-116.235v-132.004C1844.344 2379.206 1815.412 2383.085 1785.895 2383.085zM2188.327 1908.927c0-58.45-47.552-106.003-106.001-106.003-16.758 0-30.344-13.585-30.344-30.343v-36.199c0-132.838-108.07-240.91-240.907-240.91h-111.89c-132.836 0-240.907 108.072-240.907 240.91v36.29c0 16.591-13.326 30.106-29.915 30.34-57.628.812-104.512 48.325-104.512 105.915 0 57.606 46.88 105.119 104.503 105.914 16.593.229 29.924 13.746 29.924 30.34v11.109c0 146.732 119.375 266.107 266.107 266.107h61.508c146.722 0 266.089-119.375 266.089-266.107v-11.001c0-16.758 13.585-30.344 30.344-30.344C2140.775 2014.946 2188.327 1967.386 2188.327 1908.927z"></path>
  <ellipse cx="2411.882" cy="2461.15" fill="#fff" rx="99.577" ry="99.576" transform="rotate(-67.5 2411.845 2461.093)"></ellipse>
  <path fill="#4d0066" d="M2411.882,2300.886c-88.369,0-160.264,71.895-160.264,160.264s71.895,160.264,160.264,160.264s160.263-71.895,160.263-160.264S2500.251,2300.886,2411.882,2300.886z M2411.882,2560.727c-54.907,0-99.577-44.669-99.577-99.577s44.669-99.577,99.577-99.577c54.906,0,99.576,44.669,99.576,99.577S2466.788,2560.727,2411.882,2560.727z"></path>
  <path fill="#8bc3fe" d="M2416.833,1637.687c0.456,3.194,4.508,6.632,10.26,6.632h480.951c5.752,0,9.803-3.437,10.258-6.622l37.625-262.837c-0.395-0.435-1.5-1.247-3.485-1.247h-569.737c-1.995,0-3.102,0.817-3.495,1.251L2416.833,1637.687z"></path>
  <path fill="#fff" d="M2533.586,1799.917c-18.975,0-34.412,15.437-34.412,34.411c0,18.975,15.437,34.412,34.412,34.412c18.974,0,34.411-15.438,34.411-34.412C2567.996,1815.354,2552.56,1799.917,2533.586,1799.917z"></path>
  <path fill="#4d0066" d="M2533.586,1739.231c-52.438,0-95.099,42.661-95.099,95.098c0,52.438,42.661,95.099,95.099,95.099c52.437,0,95.098-42.661,95.098-95.099C2628.684,1781.891,2586.022,1739.231,2533.586,1739.231z M2533.586,1868.741c-18.975,0-34.412-15.438-34.412-34.412c0-18.974,15.437-34.411,34.412-34.411c18.974,0,34.411,15.437,34.411,34.411C2567.996,1853.303,2552.56,1868.741,2533.586,1868.741z"></path>
  <path fill="#fff" d="M2839.109,1799.917c-18.974,0-34.411,15.437-34.411,34.411c0,18.975,15.437,34.412,34.411,34.412c18.975,0,34.412-15.438,34.412-34.412C2873.521,1815.354,2858.084,1799.917,2839.109,1799.917z"></path>
  <path fill="#4d0066" d="M2839.109 1739.231c-52.437 0-95.098 42.661-95.098 95.098 0 52.438 42.661 95.099 95.098 95.099 52.438 0 95.099-42.661 95.099-95.099C2934.208 1781.891 2891.547 1739.231 2839.109 1739.231zM2839.109 1868.741c-18.974 0-34.411-15.438-34.411-34.412 0-18.974 15.437-34.411 34.411-34.411 18.975 0 34.412 15.437 34.412 34.411C2873.521 1853.303 2858.084 1868.741 2839.109 1868.741zM2260.914 1271.202v-19.845c0-10.61 8.632-19.242 19.242-19.242 9.799 0 18.016 7.342 19.116 17.077.037.329.08.658.128.985l31.275 213.883 26.084 182.218c2.377 16.644 11.055 31.784 24.435 42.632 12.804 10.38 29.104 16.097 45.9 16.097h480.951c16.796 0 33.097-5.717 45.9-16.097 13.38-10.848 22.058-25.988 24.433-42.622l37.685-263.255c2.458-17.151-2.738-34.607-14.256-47.894-12.237-14.116-30.229-22.211-49.365-22.211h-569.737c-4.284 0-8.504.427-12.622 1.215l-10.573-72.309c-4.813-40.178-38.831-70.404-79.355-70.404-44.073 0-79.929 35.856-79.929 79.928v19.845c0 16.758 13.585 30.343 30.344 30.343S2260.914 1287.96 2260.914 1271.202zM2952.442 1373.613c1.986 0 3.091.813 3.485 1.247l-37.625 262.837c-.454 3.185-4.506 6.622-10.258 6.622h-480.951c-5.752 0-9.804-3.438-10.26-6.632l-37.623-262.823c.393-.434 1.5-1.251 3.495-1.251H2952.442z"></path>
</svg>
